<?xml version="1.0" standalone="no"?>
<!DOCTYPE svg PUBLIC "-//W3C//DTD SVG 20010904//EN"
 "http://www.w3.org/TR/2001/REC-SVG-20010904/DTD/svg10.dtd">
<svg version="1.0" xmlns="http://www.w3.org/2000/svg"
 width="500.000000pt" height="500.000000pt" viewBox="0 0 500.000000 500.000000"
 preserveAspectRatio="xMidYMid meet">

<g transform="translate(0.000000,500.000000) scale(0.100000,-0.100000)"
fill="#007bff" stroke="none">
<path d="M2710 4830 c0 -5 5 -10 11 -10 5 0 7 5 4 10 -3 6 -8 10 -11 10 -2 0
-4 -4 -4 -10z"/>
<path d="M2775 4790 c-3 -6 1 -13 10 -16 19 -8 30 0 20 15 -8 14 -22 14 -30 1z"/>
<path d="M2220 4519 c-19 -4 -71 -17 -115 -27 -45 -10 -90 -24 -100 -29 -11
-6 -38 -13 -60 -17 -44 -8 -79 -21 -139 -52 -110 -56 -188 -102 -263 -153 -46
-31 -107 -71 -135 -89 -66 -40 -119 -89 -138 -127 -8 -17 -32 -45 -52 -63 -48
-42 -150 -167 -172 -210 -9 -18 -25 -38 -36 -45 -11 -6 -20 -16 -20 -22 0 -5
-11 -32 -25 -60 -13 -27 -25 -59 -25 -69 0 -11 -6 -27 -13 -35 -14 -17 -36
-95 -62 -221 -21 -101 -29 -449 -16 -670 12 -207 21 -267 44 -300 9 -13 17
-39 17 -57 0 -18 5 -33 11 -33 5 0 17 -15 25 -32 8 -18 31 -55 50 -83 19 -27
34 -58 34 -67 0 -10 4 -18 8 -18 10 0 102 -126 102 -140 0 -6 5 -10 10 -10 17
0 95 -81 126 -131 16 -25 47 -62 69 -81 52 -46 174 -128 191 -128 7 0 20 -10
28 -21 17 -25 142 -109 161 -109 7 0 24 -9 38 -20 14 -11 30 -20 36 -20 13 0
109 -48 131 -65 8 -7 37 -16 63 -19 78 -12 113 -69 68 -110 -11 -10 -22 -29
-26 -44 -4 -15 -13 -34 -21 -42 -8 -8 -29 -35 -47 -60 -18 -25 -52 -70 -74
-100 -22 -30 -46 -65 -53 -78 -11 -22 -18 -32 -62 -84 -10 -12 -18 -25 -18
-31 0 -5 -11 -23 -25 -41 -14 -17 -29 -36 -33 -41 -25 -31 -18 -105 9 -105 29
0 121 -53 165 -95 27 -26 61 -53 76 -61 15 -8 48 -29 73 -46 50 -36 102 -70
156 -105 19 -12 39 -25 44 -30 89 -72 116 -91 148 -106 59 -27 61 -26 124 34
29 27 31 30 84 111 17 27 36 51 43 55 7 5 25 29 42 55 48 76 146 220 179 263
16 22 35 47 40 56 25 41 53 79 100 139 45 58 67 89 100 141 35 56 66 97 89
118 14 14 26 29 26 34 0 11 63 96 118 157 23 26 42 52 42 59 0 6 9 20 20 31
12 12 28 33 38 48 31 50 192 271 202 277 6 3 10 15 10 26 0 10 4 19 9 19 5 0
24 24 42 53 18 28 48 70 66 93 18 23 33 46 33 51 0 6 15 30 33 54 19 24 53 78
76 119 63 111 85 147 103 167 8 10 19 29 23 43 4 14 13 34 20 46 36 58 54 248
54 599 1 242 -1 267 -24 360 -30 127 -53 194 -77 224 -10 13 -18 29 -18 36 0
7 -13 29 -29 49 -16 20 -32 50 -36 66 -3 16 -13 34 -22 41 -8 7 -33 38 -54 69
-58 82 -93 127 -125 159 -16 16 -47 49 -69 75 -21 25 -57 58 -80 73 -22 15
-70 51 -106 80 -36 29 -69 53 -73 53 -3 0 -28 15 -54 34 -27 18 -110 63 -185
100 -75 36 -141 74 -146 84 -6 9 -17 26 -26 36 -15 20 -15 20 -31 0 -8 -10
-24 -37 -35 -59 -12 -22 -30 -57 -42 -77 -12 -20 -58 -98 -102 -173 -95 -163
-88 -150 -160 -265 -13 -19 -25 -47 -29 -62 -5 -24 -3 -27 27 -33 307 -62 601
-307 698 -581 11 -32 30 -111 40 -174 30 -176 16 -324 -45 -489 -105 -281
-349 -485 -685 -571 -164 -42 -434 -13 -561 61 -8 5 -30 15 -48 23 -64 29
-141 88 -223 169 -96 95 -152 174 -192 267 -16 36 -33 73 -38 83 -11 19 -30
109 -50 227 -22 131 8 266 102 455 39 77 79 154 90 170 10 17 26 44 34 60 9
17 24 44 35 60 11 17 30 47 42 69 13 21 28 47 34 57 6 11 18 27 27 37 10 10
17 24 17 30 0 7 16 35 35 63 20 27 40 60 46 72 5 12 29 54 54 92 24 39 49 80
54 92 6 12 25 44 43 70 19 26 39 59 46 73 6 14 22 41 34 61 13 20 38 63 57 95
19 33 43 69 54 81 34 39 6 51 -73 32z"/>
</g>
</svg>
